<svg xmlns="http://www.w3.org/2000/svg" viewBox="0 0 1536 1024" preserveAspectRatio="xMidYMid slice">
  <defs>
    <radialGradient id="space" cx="76%" cy="46%" r="88%">
      <stop offset="0" stop-color="#2b100d"/>
      <stop offset=".46" stop-color="#160709"/>
      <stop offset="1" stop-color="#030102"/>
    </radialGradient>
    <radialGradient id="clockGlow">
      <stop offset="0" stop-color="#b76c25" stop-opacity=".28"/>
      <stop offset=".56" stop-color="#8a3e16" stop-opacity=".08"/>
      <stop offset="1" stop-color="#000" stop-opacity="0"/>
    </radialGradient>
    <filter id="glow"><feGaussianBlur stdDeviation="5" result="b"/><feMerge><feMergeNode in="b"/><feMergeNode in="SourceGraphic"/></feMerge></filter>
    <pattern id="ticks" width="18" height="18" patternUnits="userSpaceOnUse"><circle cx="2" cy="2" r="1" fill="#d89b4e" opacity=".45"/></pattern>
  </defs>
  <rect width="1536" height="1024" fill="url(#space)"/>
  <rect width="1536" height="1024" fill="url(#ticks)" opacity=".12"/>
  <g fill="#f0b45d" opacity=".85" filter="url(#glow)">
    <circle cx="47" cy="76" r="1.5"/><circle cx="137" cy="210" r="1"/><circle cx="301" cy="108" r="1.4"/><circle cx="466" cy="186" r="1"/><circle cx="612" cy="78" r="1.3"/><circle cx="680" cy="310" r="2"/><circle cx="420" cy="420" r="1.2"/><circle cx="196" cy="520" r="1.5"/><circle cx="82" cy="720" r="1"/><circle cx="356" cy="805" r="1.5"/><circle cx="575" cy="690" r="1.1"/><circle cx="714" cy="874" r="1.7"/>
  </g>
  <g transform="translate(1160 495)" fill="none" stroke="#d5943b" stroke-linecap="round">
    <circle r="520" fill="url(#clockGlow)" stroke-opacity=".12" stroke-width="2"/>
    <circle r="455" stroke-opacity=".4" stroke-width="2"/>
    <circle r="430" stroke-opacity=".72" stroke-width="3"/>
    <circle r="392" stroke-opacity=".42" stroke-width="2"/>
    <circle r="340" stroke-opacity=".28" stroke-width="2"/>
    <circle r="282" stroke-opacity=".55" stroke-width="2"/>
    <circle r="224" stroke-opacity=".3" stroke-width="2"/>
    <circle r="160" stroke-opacity=".42" stroke-width="2"/>
    <g stroke-opacity=".55" stroke-width="2">
      <path d="M0-430V-400 M215-372l-15 26 M372-215l-26 15 M430 0h-30 M372 215l-26-15 M215 372l-15-26 M0 430v-30 M-215 372l15-26 M-372 215l26-15 M-430 0h30 M-372-215l26 15 M-215-372l15 26"/>
    </g>
    <g stroke-opacity=".18" stroke-width="1">
      <path d="M0-455V-160 M118-440L42-154 M228-394L79-138 M322-322L112-112 M394-228L138-79 M440-118L154-42 M455 0H160 M440 118L154 42 M394 228L138 79 M322 322L112 112 M228 394L79 138 M118 440L42 154 M0 455V160 M-118 440L-42 154 M-228 394L-79 138 M-322 322L-112 112 M-394 228L-138 79 M-440 118L-154 42 M-455 0H-160 M-440-118L-154-42 M-394-228L-138-79 M-322-322L-112-112 M-228-394L-79-138 M-118-440L-42-154"/>
    </g>
    <g stroke="#efbd68" filter="url(#glow)">
      <path d="M0 0L-205-145" stroke-width="6"/><path d="M0 0L210-315" stroke-width="5"/><path d="M0 0L-290 285" stroke-width="3"/>
      <circle r="19" fill="#8f4c18" stroke-width="5"/><circle r="7" fill="#ffd27c" stroke="none"/>
    </g>
  </g>
  <g transform="translate(1160 495)" fill="#e6aa52" font-family="Georgia,serif" font-size="48" text-anchor="middle" opacity=".9">
    <text x="0" y="-360">XII</text><text x="185" y="-310">I</text><text x="320" y="-175">II</text><text x="370" y="15">III</text><text x="320" y="205">IV</text><text x="185" y="340">V</text><text x="0" y="390">VI</text><text x="-185" y="340">VII</text><text x="-320" y="205">VIII</text><text x="-370" y="15">IX</text><text x="-320" y="-175">X</text><text x="-185" y="-310">XI</text>
  </g>
</svg>